<?xml version="1.0" encoding="UTF-8" standalone="no"?>
<!-- Created with Inkscape (http://www.inkscape.org/) -->

<svg
   width="210mm"
   height="297mm"
   viewBox="0 0 210 297"
   version="1.1"
   id="svg1"
   xml:space="preserve"
   inkscape:version="1.4.3 (1:1.4.3+202512261034+0d15f75042)"
   sodipodi:docname="logo.svg"
   xmlns:inkscape="http://www.inkscape.org/namespaces/inkscape"
   xmlns:sodipodi="http://sodipodi.sourceforge.net/DTD/sodipodi-0.dtd"
   xmlns="http://www.w3.org/2000/svg"
   xmlns:svg="http://www.w3.org/2000/svg"><sodipodi:namedview
     id="namedview1"
     pagecolor="#ffffff"
     bordercolor="#000000"
     borderopacity="0.25"
     inkscape:showpageshadow="2"
     inkscape:pageopacity="0.0"
     inkscape:pagecheckerboard="0"
     inkscape:deskcolor="#d1d1d1"
     inkscape:document-units="mm"
     inkscape:zoom="0.52284039"
     inkscape:cx="105.19463"
     inkscape:cy="374.8754"
     inkscape:window-width="1920"
     inkscape:window-height="1011"
     inkscape:window-x="1440"
     inkscape:window-y="32"
     inkscape:window-maximized="1"
     inkscape:current-layer="layer1" /><defs
     id="defs1" /><g
     inkscape:label="Layer 1"
     inkscape:groupmode="layer"
     id="layer1"><circle
       style="fill:#0080e7;fill-opacity:1;stroke:none;stroke-width:0.38576;stroke-linejoin:round;stroke-dashoffset:0.8142;stroke-opacity:1"
       id="path13"
       cx="47.547493"
       cy="46.756184"
       r="9.145977" /><text
       xml:space="preserve"
       style="font-size:37.4557px;line-height:1.4;font-family:sans-serif;-inkscape-font-specification:sans-serif;text-align:center;writing-mode:lr-tb;direction:ltr;text-anchor:middle;fill:#374148;fill-opacity:1;stroke:#000000;stroke-width:0.38576;stroke-linejoin:round;stroke-dashoffset:0.8142"
       x="125.41723"
       y="61.295731"
       id="text13"><tspan
         sodipodi:role="line"
         id="tspan13"
         x="125.41723"
         y="61.295731"
         style="font-style:normal;font-variant:normal;font-weight:normal;font-stretch:normal;font-family:Comfortaa;-inkscape-font-specification:Comfortaa;fill:#374148;fill-opacity:1;stroke:none;stroke-width:0.38576">routio</tspan></text><path
       id="circle13"
       style="fill:#3a444c;fill-opacity:1;stroke:none;stroke-width:0.38576;stroke-linejoin:round;stroke-dashoffset:0.8142"
       d="m 27.910518,30.078011 a 4.5057386,4.5057386 0 0 0 -4.505545,4.506089 4.5057386,4.5057386 0 0 0 4.505545,4.505545 4.5057386,4.5057386 0 0 0 1.869572,-0.405999 h 5.48e-4 l 6.554768,4.496207 a 11.76872,11.76872 0 0 1 1.793208,-3.479285 l -5.892202,-3.85507 A 4.5057386,4.5057386 0 0 0 32.416089,34.5841 4.5057386,4.5057386 0 0 0 27.910544,30.078011 Z" /><path
       id="circle14"
       style="fill:#5ab542;fill-opacity:1;stroke:none;stroke-width:0.38576;stroke-linejoin:round;stroke-dashoffset:0.8142"
       d="m 64.42734,23.017254 a 4.5057386,4.5057386 0 0 0 -4.506093,4.505545 4.5057386,4.5057386 0 0 0 0.515326,2.091524 l -6.430602,7.303585 a 11.76872,11.76872 0 0 1 2.668936,2.409072 l 6.554216,-7.460706 a 4.5057386,4.5057386 0 0 0 1.198217,0.162074 4.5057386,4.5057386 0 0 0 4.505541,-4.505545 4.5057386,4.5057386 0 0 0 -4.505541,-4.505545 z" /><path
       id="circle15"
       style="fill:#f59128;fill-opacity:1;stroke:none;stroke-width:0.38576;stroke-linejoin:round;stroke-dashoffset:0.8142"
       d="m 54.131782,56.510785 a 11.76872,11.76872 0 0 1 -2.767828,1.377871 l 2.823313,5.75266 a 4.5057386,4.5057386 0 0 0 -0.990545,2.818916 4.5057386,4.5057386 0 0 0 4.505541,4.506093 4.5057386,4.5057386 0 0 0 4.505545,-4.506093 4.5057386,4.5057386 0 0 0 -4.505545,-4.505545 4.5057386,4.5057386 0 0 0 -0.819139,0.07526 c -0.85057,-1.672741 -1.879802,-3.748204 -2.751342,-5.519159 z" /></g></svg>
